<svg class="svg-icon" width="12" height="12" viewBox="0 0 12 12" fill="none" xmlns="http://www.w3.org/2000/svg">
        <path d="M6.4682 7.27993V7.20793C6.4682 6.72793 6.6282 6.55993 7.0202 6.34393L7.3802 6.14393C8.0442 5.78393 8.3482 5.30393 8.3482 4.67993C8.3482 3.63993 7.4922 3.02393 6.0522 3.02393C4.5722 3.02393 3.8202 3.67993 3.7002 4.79193L4.7482 4.90393C4.8282 4.21593 5.2122 3.91193 6.0522 3.91193C6.8042 3.91193 7.2842 4.16793 7.2842 4.70393C7.2842 5.03193 7.1002 5.30393 6.5642 5.55193C5.5882 5.95993 5.4202 6.44793 5.4202 7.10393V7.27993H6.4682ZM6.5482 8.99993V7.91993H5.3482V8.99993H6.5482Z" fill="currentColor"></path>
        <path d="M6.4682 7.27993V7.20793C6.4682 6.72793 6.6282 6.55993 7.0202 6.34393L7.3802 6.14393C8.0442 5.78393 8.3482 5.30393 8.3482 4.67993C8.3482 3.63993 7.4922 3.02393 6.0522 3.02393C4.5722 3.02393 3.8202 3.67993 3.7002 4.79193L4.7482 4.90393C4.8282 4.21593 5.2122 3.91193 6.0522 3.91193C6.8042 3.91193 7.2842 4.16793 7.2842 4.70393C7.2842 5.03193 7.1002 5.30393 6.5642 5.55193C5.5882 5.95993 5.4202 6.44793 5.4202 7.10393V7.27993H6.4682ZM6.5482 8.99993V7.91993H5.3482V8.99993H6.5482Z" fill="currentColor" fill-opacity="0.2"></path>
        <circle cx="6" cy="6" r="5.5" stroke="currentColor"></circle>
        <circle cx="6" cy="6" r="5.5" stroke="currentColor" stroke-opacity="0.2"></circle>
    </svg>